<?xml version="1.0" encoding="UTF-8" standalone="no"?>
<!-- Created with Inkscape (http://www.inkscape.org/) -->

<svg
   xmlns:dc="http://purl.org/dc/elements/1.1/"
   xmlns:cc="http://creativecommons.org/ns#"
   xmlns:rdf="http://www.w3.org/1999/02/22-rdf-syntax-ns#"
   xmlns:svg="http://www.w3.org/2000/svg"
   xmlns="http://www.w3.org/2000/svg"
   xmlns:sodipodi="http://sodipodi.sourceforge.net/DTD/sodipodi-0.dtd"
   xmlns:inkscape="http://www.inkscape.org/namespaces/inkscape"
   width="90mm"
   height="50mm"
   viewBox="0 0 90 50"
   version="1.1"
   id="SVGRoot"
   inkscape:version="0.92.3 (2405546, 2018-03-11)"
   sodipodi:docname="wizytowka.svg">
  <sodipodi:namedview
     id="base"
     pagecolor="#ffffff"
     bordercolor="#666666"
     borderopacity="1.0"
     inkscape:pageopacity="0.0"
     inkscape:pageshadow="2"
     inkscape:zoom="1.4142136"
     inkscape:cx="168.8917"
     inkscape:cy="163.66601"
     inkscape:document-units="mm"
     inkscape:current-layer="layer2"
     showgrid="false"
     inkscape:window-width="1198"
     inkscape:window-height="1000"
     inkscape:window-x="0"
     inkscape:window-y="0"
     inkscape:window-maximized="0"
     showguides="true"
     inkscape:guide-bbox="true" />
  <defs
     id="defs1366" />
  <metadata
     id="metadata1369">
    <rdf:RDF>
      <cc:Work
         rdf:about="">
        <dc:format>image/svg+xml</dc:format>
        <dc:type
           rdf:resource="http://purl.org/dc/dcmitype/StillImage" />
        <dc:title></dc:title>
      </cc:Work>
    </rdf:RDF>
  </metadata>
  <g
     id="layer1"
     inkscape:groupmode="layer"
     inkscape:label="Layer 1"
     style="display:inline;opacity:1">
    <rect
       style="opacity:1;fill:#000000;fill-opacity:0.75155281;stroke:none;stroke-width:1.76499999;stroke-linejoin:miter;stroke-miterlimit:4;stroke-dasharray:none;stroke-dashoffset:0;stroke-opacity:1"
       id="rect2051"
       width="14.781989"
       height="15.034242"
       x="3.681469"
       y="-17.762671"
       transform="scale(1,-1)" />
    <rect
       style="opacity:1;fill:#ffffff;fill-opacity:1;stroke:none;stroke-width:1.7650001;stroke-linejoin:miter;stroke-miterlimit:4;stroke-dasharray:none;stroke-dashoffset:0;stroke-opacity:1"
       id="rect2055"
       width="1.5422943"
       height="10.077005"
       x="6.1050744"
       y="-15.304369"
       transform="scale(1,-1)" />
    <rect
       transform="scale(1,-1)"
       y="-15.304369"
       x="14.537619"
       height="10.077005"
       width="1.5422943"
       id="rect2057"
       style="opacity:1;fill:#ffffff;fill-opacity:1;stroke:none;stroke-width:1.7650001;stroke-linejoin:miter;stroke-miterlimit:4;stroke-dasharray:none;stroke-dashoffset:0;stroke-opacity:1" />
    <rect
       transform="rotate(-90)"
       y="6.1050744"
       x="-15.304369"
       height="3.5052142"
       width="1.4221579"
       id="rect2057-3"
       style="display:inline;opacity:1;fill:#ffffff;fill-opacity:1;stroke:none;stroke-width:1.7650001;stroke-linejoin:miter;stroke-miterlimit:4;stroke-dasharray:none;stroke-dashoffset:0;stroke-opacity:1" />
    <rect
       style="display:inline;opacity:1;fill:#ffffff;fill-opacity:1;stroke:none;stroke-width:1.7650001;stroke-linejoin:miter;stroke-miterlimit:4;stroke-dasharray:none;stroke-dashoffset:0;stroke-opacity:1"
       id="rect2074"
       width="1.4221579"
       height="2.1138554"
       x="-6.6495209"
       y="12.494579"
       transform="rotate(-90)" />
    <path
       style="opacity:1;fill:#ffffff;fill-opacity:1;stroke:none;stroke-width:1.76499999;stroke-linejoin:miter;stroke-miterlimit:4;stroke-dasharray:none;stroke-dashoffset:0;stroke-opacity:1"
       d="M 7.6473683,5.2273924 6.8483673,6.4206718 12.494579,10.310337 V 8.5666066 Z m 6.3895047,4.401706 v 0.1739603 l 0.07981,-0.1190422 z"
       id="rect2082"
       inkscape:connector-curvature="0" />
    <path
       style="opacity:1;fill:#ffffff;fill-opacity:1;stroke:none;stroke-width:1.7650001;stroke-linejoin:miter;stroke-miterlimit:4;stroke-dasharray:none;stroke-dashoffset:0;stroke-opacity:1"
       d="m 9.610289,10.166188 v 1.743731 l 4.92733,3.39445 0.799001,-1.19328 z"
       id="rect2084"
       inkscape:connector-curvature="0" />
    <g
       id="g2311"
       transform="translate(2.6458333,-0.13229167)">
      <rect
         style="opacity:1;fill:#000000;fill-opacity:0.75155281;stroke:none;stroke-width:1.76499987;stroke-linejoin:miter;stroke-miterlimit:4;stroke-dasharray:none;stroke-dashoffset:0;stroke-opacity:1"
         id="rect2129"
         width="10.147245"
         height="9.3473587"
         x="38.687798"
         y="-15.142455"
         transform="scale(1,-1)" />
      <rect
         style="opacity:1;fill:#ffffff;fill-opacity:1;stroke:none;stroke-width:1.7650001;stroke-linejoin:miter;stroke-miterlimit:4;stroke-dasharray:none;stroke-dashoffset:0;stroke-opacity:1"
         id="rect2131"
         width="1.1518924"
         height="6.816606"
         x="40.757801"
         y="-13.948229"
         transform="scale(1,-1)" />
      <path
         inkscape:connector-curvature="0"
         id="rect2135"
         transform="scale(0.26458333)"
         d="m 154.04492,49.082031 v 3.634766 h 14.36524 l 4.27929,-2.861328 v -0.773438 z"
         style="display:inline;opacity:1;fill:#ffffff;fill-opacity:1;stroke:none;stroke-width:6.67086649;stroke-linejoin:miter;stroke-miterlimit:4;stroke-dasharray:none;stroke-dashoffset:0;stroke-opacity:1" />
      <path
         inkscape:connector-curvature="0"
         id="rect2143"
         transform="scale(0.26458333)"
         d="m 155.16992,26.955078 v 3.634766 h 16.39453 v -1.570313 l -3.08789,-2.064453 z"
         style="display:inline;opacity:1;fill:#ffffff;fill-opacity:1;stroke:none;stroke-width:6.67086649;stroke-linejoin:miter;stroke-miterlimit:4;stroke-dasharray:none;stroke-dashoffset:0;stroke-opacity:1" />
      <path
         inkscape:connector-curvature="0"
         d="m 182.75586,38.851562 -0.004,0.002 v 0.203125 c 0.001,-0.0658 0.01,-0.124404 0.0234,-0.175782 z m -4.35742,2.896485 -11.16797,7.425781 2.00976,3.023438 9.15821,-6.125 z"
         style="display:inline;opacity:1;fill:#ffffff;fill-opacity:1;stroke:none;stroke-width:6.67086649;stroke-linejoin:miter;stroke-miterlimit:4;stroke-dasharray:none;stroke-dashoffset:0;stroke-opacity:1"
         transform="scale(0.26458333)"
         id="rect2135-6" />
      <path
         inkscape:connector-curvature="0"
         d="m 169.23242,27.417969 -2.00195,3.009765 11.16797,7.425782 v -4.308594 z m 13.51953,9.037109 v 0.04102 c 0.003,-5.6e-5 0.007,6.9e-5 0.01,0 0.008,-0.007 0.0191,-0.01105 0.0273,-0.01758 z m 0,4.238281 V 40.75 l 0.004,0.002 0.0352,-0.05273 c -0.0127,-7.09e-4 -0.0262,-0.0049 -0.0391,-0.0059 z"
         style="display:inline;opacity:1;fill:#ffffff;fill-opacity:1;stroke:none;stroke-width:6.67086649;stroke-linejoin:miter;stroke-miterlimit:4;stroke-dasharray:none;stroke-dashoffset:0;stroke-opacity:1"
         transform="scale(0.26458333)"
         id="rect2181" />
      <path
         inkscape:connector-curvature="0"
         d="m 175.67383,26.955078 0.0273,0.01758 c 0.004,-0.008 0.009,-0.01031 0.0137,-0.01758 z m -1.62891,3.84961 v 18.146484 l 4.08399,-2.732422 0.26953,-0.179688 V 33.716797 Z m 1.875,21.832031 -0.12109,0.08008 h 0.0976 c 0.005,-0.01633 0.0114,-0.03239 0.0156,-0.04883 0.004,-0.01462 0.005,-0.01826 0.008,-0.03125 z m 1.83203,0.07422 c -0.002,0.0022 -0.005,0.0037 -0.008,0.0059 h 0.004 c 0.001,-0.002 0.003,-0.0039 0.004,-0.0059 z"
         style="opacity:1;fill:#ffffff;fill-opacity:1;stroke:none;stroke-width:6.67086649;stroke-linejoin:miter;stroke-miterlimit:4;stroke-dasharray:none;stroke-dashoffset:0;stroke-opacity:1"
         transform="scale(0.26458333)"
         id="rect2187" />
      <rect
         transform="scale(1,-1)"
         y="-11.888139"
         x="42.651398"
         height="2.7058845"
         width="0.45724922"
         id="rect2286"
         style="opacity:1;fill:#ffffff;fill-opacity:1;stroke:none;stroke-width:1.7650001;stroke-linejoin:miter;stroke-miterlimit:4;stroke-dasharray:none;stroke-dashoffset:0;stroke-opacity:1" />
      <path
         style="display:inline;opacity:1;fill:#ffffff;fill-opacity:1;stroke:none;stroke-width:1.76500022;stroke-linejoin:miter;stroke-miterlimit:4;stroke-dasharray:none;stroke-dashoffset:0;stroke-opacity:1"
         d="m 42.651365,11.506291 v 0.38175 h 1.508747 l 0.449444,-0.300518 v -0.08123 z"
         id="path2288"
         inkscape:connector-curvature="0" />
      <path
         style="display:inline;opacity:1;fill:#ffffff;fill-opacity:1;stroke:none;stroke-width:1.76500022;stroke-linejoin:miter;stroke-miterlimit:4;stroke-dasharray:none;stroke-dashoffset:0;stroke-opacity:1"
         d="m 42.769521,9.1823489 v 0.381751 H 44.4914 v -0.164926 l -0.324314,-0.216825 z"
         id="path2290"
         inkscape:connector-curvature="0" />
      <path
         id="path2292"
         style="display:inline;opacity:1;fill:#ffffff;fill-opacity:1;stroke:none;stroke-width:1.76500022;stroke-linejoin:miter;stroke-miterlimit:4;stroke-dasharray:none;stroke-dashoffset:0;stroke-opacity:1"
         d="m 45.666807,10.431809 -4.2e-4,2.1e-4 v 0.02133 c 1.05e-4,-0.0069 10e-4,-0.01307 0.0025,-0.01846 z m -0.45765,0.304211 -1.172945,0.779912 0.21108,0.317544 0.961865,-0.643294 z"
         inkscape:connector-curvature="0" />
      <path
         id="path2294"
         style="display:inline;opacity:1;fill:#ffffff;fill-opacity:1;stroke:none;stroke-width:1.76500022;stroke-linejoin:miter;stroke-miterlimit:4;stroke-dasharray:none;stroke-dashoffset:0;stroke-opacity:1"
         d="m 44.246472,9.2309659 -0.21026,0.316108 1.172945,0.7799121 V 9.8744651 Z m 1.419924,0.9491461 v 0.0043 c 3.15e-4,-6e-6 7.35e-4,7e-6 10e-4,0 8.41e-4,-7.35e-4 0.002,-0.0012 0.0029,-0.0018 z m 0,0.445136 v 0.0059 l 4.2e-4,2.1e-4 0.0037,-0.0055 c -0.0013,-7.4e-5 -0.0028,-5.15e-4 -0.0041,-6.2e-4 z"
         inkscape:connector-curvature="0" />
      <path
         id="path2296"
         style="opacity:1;fill:#ffffff;fill-opacity:1;stroke:none;stroke-width:1.76500022;stroke-linejoin:miter;stroke-miterlimit:4;stroke-dasharray:none;stroke-dashoffset:0;stroke-opacity:1"
         d="m 44.922998,9.1823489 0.0029,0.0018 c 4.2e-4,-8.41e-4 9.46e-4,-0.0011 0.0014,-0.0018 z m -0.171081,0.4043162 v 1.9058819 l 0.428932,-0.28698 0.02831,-0.01887 V 9.8925181 Z m 0.196927,2.2929659 -0.01272,0.0084 h 0.01025 c 5.25e-4,-0.0017 0.0012,-0.0034 0.0016,-0.0051 4.2e-4,-0.0015 5.25e-4,-0.0019 8.4e-4,-0.0033 z m 0.192414,0.0078 c -2.1e-4,2.31e-4 -5.25e-4,3.89e-4 -8.4e-4,6.2e-4 h 4.2e-4 c 1.05e-4,-2.1e-4 3.15e-4,-4.1e-4 4.2e-4,-6.2e-4 z"
         inkscape:connector-curvature="0" />
    </g>
  </g>
  <g
     inkscape:groupmode="layer"
     id="layer2"
     inkscape:label="tekst">
    <text
       xml:space="preserve"
       style="font-style:normal;font-variant:normal;font-weight:normal;font-stretch:normal;font-size:7.03690195px;line-height:1.25;font-family:Verdana;-inkscape-font-specification:Verdana;letter-spacing:0px;word-spacing:0px;fill:#000000;fill-opacity:1;stroke:none;stroke-width:0.26458332"
       x="18.848013"
       y="13.755233"
       id="text2120"
       transform="scale(0.9973562,1.0026508)"><tspan
         sodipodi:role="line"
         id="tspan2118"
         x="18.848013"
         y="13.755233"
         style="font-style:normal;font-variant:normal;font-weight:normal;font-stretch:normal;font-size:8.44428158px;font-family:Verdana;-inkscape-font-specification:Verdana;stroke-width:0.26458332">ERO     ESIGNER</tspan></text>
  </g>
</svg>
